PathFileType	4	(X/Y/Z)	RBDS022\RBDS022runT35.trc
DataRate	CameraRate	NumFrames	NumMarkers	Units	OrigDataRate	OrigDataStartFrame	OrigNumFrames
150.000000	150.000000	4	33	mm	150.000000	562	4500
Frame#	Time	L.ASIS			L.Heel.Bottom			L.Heel.Lateral			L.Heel.Top			L.Iliac.Crest			L.MT1			L.MT5			L.PSIS			L.Shank.Bottom.Lateral			L.Shank.Bottom.Medial			L.Shank.Top.Lateral			L.Shank.Top.Medial			L.Thigh.Bottom.Lateral			L.Thigh.Bottom.Medial			L.Thigh.Top.Lateral			L.Thigh.Top.Medial			R.ASIS			R.ASY			R.Heel.Bottom			R.Heel.Lateral			R.Heel.Top			R.Iliac.Crest			R.MT1			R.MT5			R.PSIS			R.Shank.Bottom.Lateral			R.Shank.Bottom.Medial			R.Shank.Top.Lateral			R.Shank.Top.Medial			R.Thigh.Bottom.Lateral			R.Thigh.Bottom.Medial			R.Thigh.Top.Lateral			R.Thigh.Top.Medial			
		X1	Y1	Z1	X2	Y2	Z2	X3	Y3	Z3	X4	Y4	Z4	X5	Y5	Z5	X6	Y6	Z6	X7	Y7	Z7	X8	Y8	Z8	X9	Y9	Z9	X10	Y10	Z10	X11	Y11	Z11	X12	Y12	Z12	X13	Y13	Z13	X14	Y14	Z14	X15	Y15	Z15	X16	Y16	Z16	X17	Y17	Z17	X18	Y18	Z18	X19	Y19	Z19	X20	Y20	Z20	X21	Y21	Z21	X22	Y22	Z22	X23	Y23	Z23	X24	Y24	Z24	X25	Y25	Z25	X26	Y26	Z26	X27	Y27	Z27	X28	Y28	Z28	X29	Y29	Z29	X30	Y30	Z30	X31	Y31	Z31	X32	Y32	Z32	X33	Y33	Z33	

563	3.746666666666667	2249.10686462811	970.4877142789215	892.1825171934283	1620.134654308349	272.1246656302558	1001.308370516508	1646.278856703204	255.8257606696897	950.8233410473799	1664.209561900466	284.680616755961	996.0926442145956	2199.871463932944	1068.279060877126	854.3997662698207	1728.962515512805	82.15195947176535	1010.961481721667	1689.482796522176	111.2826997374278	906.9291028134585	2088.687554248906	1028.285126513505	972.4243085899329	1750.582346224567	299.6241028488949	918.006704462328	1726.271395304772	327.5282126584143	959.5916698735917	1793.572715599133	365.2539714181084	899.7705733946856	1769.927426914172	393.3015610086295	939.3006210687089	2040.779427709848	641.9617932626612	863.8097944931418	1989.305206815543	672.8579999739748	906.0283024458234	2078.013808041239	741.0257748895409	836.7430129320492	2029.452880046206	770.2097309834163	879.0097380655321	2249.47771074355	981.8585519576071	1123.488422461406	2492.70137663915	126.0656917443404	1086.985630117494	2332.713890241077	32.78767343459786	1027.270179038666	2346.662396850662	50.24685548945389	1080.500099426141	2328.406188653374	76.04524697373252	1035.015204970448	2189.090882259787	1063.659841483164	1171.47254644034	2534.982542419585	99.17120247623443	1041.663886894681	2494.781657562307	67.49500729095564	1143.456682884611	2089.610378949541	1024.817555963088	1061.258578249943	2338.97619549189	183.6476161201262	1110.728023674168	2313.342759552158	191.4882333255137	1066.752642296462	2324.520579144251	264.7226305021201	1131.836239137223	2295.147630584548	267.7589771600685	1087.74268969981	2301.909207236474	619.1230699412071	1172.696172890759	2245.022233275688	597.7785129175649	1136.281247905014	2254.360896117222	717.7771994205044	1190.714081826127	2198.415645323126	695.3616997226371	1159.111902676074	
564	3.753333333333333	2250.264761097483	970.0843051597832	892.7872287563736	1614.431673709933	285.8201865804739	1001.700715942989	1639.634241268195	268.5883500543976	951.0673943418046	1659.042716815211	296.3834203096508	996.5077711627924	2202.400142448432	1068.624290293284	854.8879713810524	1715.244161409915	90.66839546730918	1010.369105396073	1676.82902635144	121.9624735440751	906.7582056846239	2089.777363605373	1028.887843516017	972.302679582092	1745.238188649987	307.3161636653825	918.2207648382284	1721.835451020244	336.0748348990522	959.7583519272794	1790.450090843195	371.3683860751029	900.0908026209999	1767.837979646544	400.1583599390492	939.632308743939	2043.75590308937	640.4352489111026	864.4932477864986	1991.710009983379	671.3158657077898	905.739053252089	2081.048424488005	739.4075324349059	837.2360096109585	2031.796579639257	768.6325404479625	878.4834191538657	2249.44263877135	981.3156552985465	1123.809787325138	2504.957448300258	130.0160604593062	1085.836635264979	2349.210790411012	29.13395441375904	1025.366538183686	2362.468202305854	46.62700730759406	1078.7910390069	2342.745805690998	72.19227647811223	1033.67090976992	2190.003679777891	1063.150938125965	1171.743775688203	2548.562566938091	106.0133569420269	1039.932683685466	2510.153513600475	70.45616062627039	1141.440521249695	2090.234922823003	1025.099559459321	1061.259799263721	2347.972894217411	180.9379501495029	1109.333771523941	2322.560954397677	188.0091248171944	1065.039054446076	2330.160047887835	261.4444221660453	1130.527818469768	2301.189590786808	263.5188792755923	1086.116299635437	2297.738130395547	616.2656005857474	1173.79651519617	2241.42958617045	596.2121088562385	1135.629163414702	2250.835558694512	715.3964536616121	1191.998335465412	2195.495015674058	694.0612214323507	1158.649489065483	
565	3.76	2251.374471644924	969.2293447785726	893.5068251413454	1609.244101852348	299.4900039623479	1001.899962440223	1633.67558671644	281.4647222304525	951.2134380196542	1654.259975893828	308.2174733547944	996.8731562092275	2204.35774786757	1068.423428677829	855.3872828620256	1702.570113105696	100.0938127336356	1009.98923916074	1665.48589694059	133.2959849939813	906.5971429947948	2090.675675734848	1028.801440430003	972.1322870875293	1740.711460283265	315.2325065886064	918.5350324436887	1718.360363395456	344.9996668676466	959.9575871922666	1788.436705713267	377.3484682136319	900.4912173511085	1766.983481433714	407.0387538061044	939.9627677667828	2047.952168387375	637.5339937125418	865.1096746207942	1995.086629917241	668.1508858316073	905.2226122431349	2084.912474323586	736.5900014429617	837.7903308145414	2034.718781667402	765.6242780449115	877.7967588710719	2249.150940087244	980.4337072887743	1124.382415013005	2514.162881541255	132.9491035702101	1084.378323236248	2361.695670236039	26.3670163712624	1023.804297791346	2374.596099978242	43.88875057530601	1077.31383075174	2353.646625537319	69.21308931763443	1032.48029289869	2190.668016744889	1062.03100279663	1172.130053522065	2558.535027371056	111.2159189383579	1037.88749591641	2521.910445330182	72.6357147537403	1139.286997167298	2090.552757302472	1024.749715805916	1061.193802545615	2354.742091862396	178.5174397720877	1108.029905714536	2329.455426656696	184.9843778263381	1063.499319069703	2334.309906511441	258.5095748080924	1129.262287890488	2305.608466500136	259.82163741058	1084.632667741545	2293.898330734833	613.3751246588014	1174.582044272072	2238.153247759538	594.4958946853874	1134.763830313988	2247.449332879253	712.8561315227986	1193.071246154712	2192.736499564637	692.506363821682	1158.030599485331	
566	3.766666666666667	2252.465106423278	967.9036619304532	894.3444084704589	1604.772514578441	313.1926468602154	1001.841762553123	1628.606504809942	294.4518933718812	951.2003858831808	1650.088931538742	320.2241028912848	997.1011998763151	2205.713670052526	1067.649322194834	855.885744358754	1691.062631334686	110.3639718405033	1009.832285297432	1655.552900723025	145.1740744422556	906.4501490227274	2091.392507670922	1027.932607246744	971.8700098282376	1737.160763935729	323.3568839092595	918.892385025192	1715.978603031731	354.2496011414477	960.1253695888414	1787.61724167389	383.1998992362671	900.9334412963948	1767.415780125307	413.9202525850824	940.2446430059485	2053.268925837334	633.3284985638867	865.6632698378426	1999.389967691619	663.4391792471921	904.5625890128384	2089.505822820287	732.637692717914	838.4023037862022	2038.181823170924	761.2494004388384	877.0307611680417	2248.600707444048	979.2689215482052	1125.210889848572	2520.214132191762	134.522720109228	1082.57801662556	2369.834142276437	24.32006571675515	1022.48597391378	2382.702401325987	41.89791738264392	1075.972913513929	2360.8459027485	66.98352423661326	1031.318446889143	2191.003838972852	1060.3903366314	1172.613267930057	2564.823565902687	114.2914002453817	1035.533021142827	2529.785623290919	73.70881074029366	1137.00420073844	2090.562013749835	1023.727919665722	1061.014648760906	2359.148288568293	176.2484923627943	1106.776189523098	2333.881686527129	182.2909215148873	1062.096819410951	2336.893380956001	255.836780504346	1128.037819439283	2308.312048547409	256.6057185551356	1083.292530684728	2290.545366479458	610.5549413644037	1175.015738914625	2235.290145883081	592.6616822646101	1133.779559190156	2244.347161760742	710.2537338941409	1193.874880299872	2190.236356160977	690.7402420673986	1157.316276354314	
